<svg data-v-fde0c5aa="" xmlns="http://www.w3.org/2000/svg" viewBox="0 0 300 300" class="iconAboveSlogan"><!----><defs data-v-fde0c5aa=""><!----></defs><rect data-v-fde0c5aa="" fill="transparent" x="0" y="0" width="300px" height="300px" class="logo-background-square"></rect><defs data-v-fde0c5aa=""><!----></defs><g data-v-fde0c5aa="" id="12a10942-bd46-4d3e-9065-47c724112fa9" fill="#000000" transform="matrix(2.618328217618292,0,0,2.618328217618292,19.345417945595454,154.0990316476219)"><path d="M9.58 11.31Q9.65 11.49 9.65 11.62L9.65 11.62Q9.65 11.91 9.44 12.12Q9.23 12.33 8.92 12.33L8.92 12.33Q8.71 12.33 8.52 12.21Q8.33 12.10 8.25 11.89L8.25 11.89L7.46 9.93L2.44 9.93L1.64 11.89Q1.54 12.10 1.36 12.21Q1.18 12.33 0.97 12.33L0.97 12.33Q0.66 12.33 0.46 12.12Q0.25 11.90 0.25 11.61L0.25 11.61Q0.25 11.47 0.32 11.28L0.32 11.28L4.26 1.89Q4.47 1.40 4.94 1.40L4.94 1.40Q5.45 1.40 5.63 1.89L5.63 1.89L9.58 11.31ZM2.93 8.72L6.97 8.72L4.97 3.74L2.93 8.72ZM17.42 4.66Q17.74 4.66 17.93 4.86Q18.13 5.05 18.13 5.38L18.13 5.38L18.13 11.62Q18.13 11.93 17.93 12.13Q17.74 12.33 17.42 12.33L17.42 12.33Q17.11 12.33 16.91 12.13Q16.70 11.93 16.70 11.62L16.70 11.62L16.70 11.47Q16.25 11.91 15.64 12.16Q15.02 12.40 14.32 12.40L14.32 12.40Q13.36 12.40 12.59 11.98Q11.82 11.56 11.38 10.76Q10.95 9.95 10.95 8.82L10.95 8.82L10.95 5.38Q10.95 5.07 11.15 4.86Q11.35 4.66 11.66 4.66L11.66 4.66Q11.97 4.66 12.17 4.86Q12.38 5.07 12.38 5.38L12.38 5.38L12.38 8.82Q12.38 9.95 12.99 10.54Q13.59 11.12 14.60 11.12L14.60 11.12Q15.19 11.12 15.67 10.88Q16.16 10.64 16.43 10.23Q16.70 9.83 16.70 9.32L16.70 9.32L16.70 5.38Q16.70 5.05 16.91 4.86Q17.11 4.66 17.42 4.66L17.42 4.66ZM24.05 4.62Q25.70 4.62 26.80 5.88L26.80 5.88Q26.94 6.03 26.94 6.24L26.94 6.24Q26.94 6.55 26.63 6.76L26.63 6.76Q26.49 6.86 26.31 6.86L26.31 6.86Q25.98 6.86 25.76 6.61L25.76 6.61Q25.41 6.23 25.00 6.05Q24.58 5.88 24.05 5.88L24.05 5.88Q22.97 5.88 22.30 6.60Q21.63 7.32 21.63 8.51L21.63 8.51Q21.63 9.27 21.95 9.86Q22.26 10.46 22.83 10.79Q23.39 11.13 24.12 11.13L24.12 11.13Q25.07 11.13 25.66 10.64L25.66 10.64Q25.93 10.44 26.18 10.44L26.18 10.44Q26.38 10.44 26.54 10.57L26.54 10.57Q26.81 10.79 26.81 11.07L26.81 11.07Q26.81 11.28 26.64 11.45L26.64 11.45Q25.63 12.39 24.12 12.39L24.12 12.39Q23.02 12.39 22.13 11.89Q21.25 11.38 20.75 10.49Q20.26 9.60 20.26 8.51L20.26 8.51Q20.26 7.39 20.74 6.50Q21.22 5.61 22.09 5.12Q22.96 4.62 24.05 4.62L24.05 4.62ZM32.33 10.93Q32.58 10.93 32.75 11.13Q32.93 11.33 32.93 11.63L32.93 11.63Q32.93 11.94 32.70 12.14Q32.47 12.33 32.10 12.33L32.10 12.33L31.85 12.33Q31.16 12.33 30.60 11.98Q30.03 11.62 29.71 11.00Q29.39 10.39 29.39 9.62L29.39 9.62L29.39 6.16L28.74 6.16Q28.45 6.16 28.27 5.99Q28.08 5.82 28.08 5.57L28.08 5.57Q28.08 5.29 28.27 5.12Q28.45 4.96 28.74 4.96L28.74 4.96L29.39 4.96L29.39 2.94Q29.39 2.63 29.58 2.44Q29.78 2.24 30.09 2.24L30.09 2.24Q30.39 2.24 30.59 2.44Q30.79 2.63 30.79 2.94L30.79 2.94L30.79 4.96L31.98 4.96Q32.27 4.96 32.45 5.12Q32.63 5.29 32.63 5.57L32.63 5.57Q32.63 5.82 32.45 5.99Q32.27 6.16 31.98 6.16L31.98 6.16L30.79 6.16L30.79 9.62Q30.79 10.18 31.09 10.56Q31.40 10.93 31.85 10.93L31.85 10.93L32.33 10.93ZM34.82 5.39Q34.82 5.07 35.02 4.87Q35.22 4.68 35.53 4.68L35.53 4.68Q35.85 4.68 36.05 4.87Q36.25 5.07 36.25 5.39L36.25 5.39L36.25 11.62Q36.25 11.93 36.05 12.13Q35.85 12.33 35.53 12.33L35.53 12.33Q35.22 12.33 35.02 12.13Q34.82 11.93 34.82 11.62L34.82 11.62L34.82 5.39ZM35.53 1.58Q35.91 1.58 36.18 1.85Q36.46 2.13 36.46 2.51L36.46 2.51Q36.46 2.88 36.18 3.16Q35.91 3.43 35.53 3.43L35.53 3.43Q35.15 3.43 34.88 3.16Q34.61 2.88 34.61 2.51L34.61 2.51Q34.61 2.13 34.88 1.85Q35.15 1.58 35.53 1.58L35.53 1.58ZM42.38 4.62Q43.48 4.62 44.36 5.12Q45.23 5.61 45.73 6.50Q46.23 7.38 46.23 8.51L46.23 8.51Q46.23 9.63 45.74 10.51Q45.25 11.40 44.37 11.89Q43.50 12.39 42.38 12.39L42.38 12.39Q41.26 12.39 40.38 11.89Q39.49 11.40 39.00 10.51Q38.51 9.63 38.51 8.51L38.51 8.51Q38.51 7.38 39.00 6.50Q39.49 5.61 40.38 5.12Q41.26 4.62 42.38 4.62L42.38 4.62ZM42.38 5.88Q41.66 5.88 41.10 6.22Q40.53 6.55 40.21 7.15Q39.89 7.76 39.89 8.51L39.89 8.51Q39.89 9.27 40.21 9.86Q40.53 10.46 41.10 10.79Q41.66 11.13 42.38 11.13L42.38 11.13Q43.09 11.13 43.66 10.79Q44.23 10.46 44.54 9.86Q44.86 9.27 44.86 8.51L44.86 8.51Q44.86 7.76 44.54 7.15Q44.23 6.55 43.66 6.22Q43.09 5.88 42.38 5.88L42.38 5.88ZM52.16 4.61Q53.13 4.61 53.90 5.03Q54.67 5.45 55.10 6.25Q55.54 7.06 55.54 8.19L55.54 8.19L55.54 11.63Q55.54 11.94 55.34 12.14Q55.13 12.35 54.82 12.35L54.82 12.35Q54.52 12.35 54.31 12.14Q54.11 11.94 54.11 11.63L54.11 11.63L54.11 8.19Q54.11 7.06 53.50 6.47Q52.89 5.89 51.88 5.89L51.88 5.89Q51.30 5.89 50.81 6.13Q50.33 6.37 50.06 6.78Q49.78 7.18 49.78 7.69L49.78 7.69L49.78 11.63Q49.78 11.94 49.59 12.14Q49.39 12.35 49.07 12.35L49.07 12.35Q48.76 12.35 48.56 12.14Q48.36 11.94 48.36 11.63L48.36 11.63L48.36 5.39Q48.36 5.07 48.56 4.87Q48.76 4.68 49.07 4.68L49.07 4.68Q49.39 4.68 49.59 4.87Q49.78 5.07 49.78 5.39L49.78 5.39L49.78 5.54Q50.23 5.10 50.85 4.85Q51.46 4.61 52.16 4.61L52.16 4.61ZM66.22 11.31Q66.29 11.49 66.29 11.62L66.29 11.62Q66.29 11.91 66.08 12.12Q65.87 12.33 65.56 12.33L65.56 12.33Q65.35 12.33 65.16 12.21Q64.97 12.10 64.89 11.89L64.89 11.89L64.11 9.93L59.08 9.93L58.28 11.89Q58.18 12.10 58.00 12.21Q57.82 12.33 57.61 12.33L57.61 12.33Q57.30 12.33 57.10 12.12Q56.90 11.90 56.90 11.61L56.90 11.61Q56.90 11.47 56.97 11.28L56.97 11.28L60.90 1.89Q61.11 1.40 61.59 1.40L61.59 1.40Q62.09 1.40 62.27 1.89L62.27 1.89L66.22 11.31ZM59.57 8.72L63.62 8.72L61.61 3.74L59.57 8.72ZM71.50 4.59Q72.24 4.59 72.66 4.82Q73.08 5.04 73.08 5.38L73.08 5.38Q73.08 5.47 73.07 5.52L73.07 5.52Q72.94 5.96 72.51 5.96L72.51 5.96Q72.44 5.96 72.30 5.94L72.30 5.94Q71.74 5.84 71.39 5.84L71.39 5.84Q70.38 5.84 69.76 6.30Q69.15 6.76 69.15 7.55L69.15 7.55L69.15 11.63Q69.15 11.97 68.97 12.15Q68.80 12.33 68.45 12.33L68.45 12.33Q68.11 12.33 67.93 12.16Q67.75 11.98 67.75 11.63L67.75 11.63L67.75 5.38Q67.75 5.04 67.93 4.86Q68.11 4.68 68.45 4.68L68.45 4.68Q69.15 4.68 69.15 5.38L69.15 5.38L69.15 5.64Q69.57 5.15 70.18 4.87Q70.80 4.59 71.50 4.59L71.50 4.59ZM80.86 8.39Q80.86 8.65 80.68 8.83Q80.50 9.00 80.22 9.00L80.22 9.00L74.90 9.00Q75.05 9.98 75.79 10.58Q76.52 11.19 77.59 11.19L77.59 11.19Q78.01 11.19 78.46 11.03Q78.92 10.88 79.21 10.65L79.21 10.65Q79.41 10.50 79.67 10.50L79.67 10.50Q79.94 10.50 80.09 10.64L80.09 10.64Q80.35 10.85 80.35 11.12L80.35 11.12Q80.35 11.37 80.12 11.54L80.12 11.54Q79.65 11.91 78.94 12.15Q78.23 12.39 77.59 12.39L77.59 12.39Q76.44 12.39 75.53 11.89Q74.62 11.40 74.11 10.51Q73.60 9.63 73.60 8.51L73.60 8.51Q73.60 7.39 74.08 6.50Q74.56 5.61 75.42 5.12Q76.29 4.62 77.38 4.62L77.38 4.62Q78.46 4.62 79.24 5.10Q80.02 5.57 80.44 6.43Q80.86 7.28 80.86 8.39L80.86 8.39ZM77.38 5.82Q76.36 5.82 75.72 6.38Q75.08 6.94 74.91 7.88L74.91 7.88L79.58 7.88Q79.45 6.94 78.88 6.38Q78.30 5.82 77.38 5.82L77.38 5.82ZM86.49 4.61Q87.46 4.61 88.23 5.03Q89.00 5.45 89.43 6.25Q89.87 7.06 89.87 8.19L89.87 8.19L89.87 11.63Q89.87 11.94 89.66 12.14Q89.46 12.35 89.15 12.35L89.15 12.35Q88.84 12.35 88.64 12.14Q88.44 11.94 88.44 11.63L88.44 11.63L88.44 8.19Q88.44 7.06 87.83 6.47Q87.22 5.89 86.21 5.89L86.21 5.89Q85.62 5.89 85.14 6.13Q84.66 6.37 84.39 6.78Q84.11 7.18 84.11 7.69L84.11 7.69L84.11 11.63Q84.11 11.94 83.92 12.14Q83.72 12.35 83.40 12.35L83.40 12.35Q83.09 12.35 82.89 12.14Q82.68 11.94 82.68 11.63L82.68 11.63L82.68 5.39Q82.68 5.07 82.89 4.87Q83.09 4.68 83.40 4.68L83.40 4.68Q83.72 4.68 83.92 4.87Q84.11 5.07 84.11 5.39L84.11 5.39L84.11 5.54Q84.56 5.10 85.18 4.85Q85.79 4.61 86.49 4.61L86.49 4.61ZM95.70 4.62Q96.78 4.62 97.66 5.13Q98.53 5.64 99.04 6.53Q99.55 7.42 99.55 8.51L99.55 8.51L99.55 11.63Q99.55 11.94 99.35 12.14Q99.15 12.35 98.84 12.35L98.84 12.35Q98.53 12.35 98.33 12.14Q98.13 11.94 98.13 11.63L98.13 11.63L98.13 11.12Q97.64 11.72 96.94 12.05Q96.24 12.39 95.42 12.39L95.42 12.39Q94.42 12.39 93.60 11.89Q92.78 11.38 92.31 10.49Q91.84 9.60 91.84 8.51L91.84 8.51Q91.84 7.42 92.34 6.53Q92.85 5.64 93.74 5.13Q94.63 4.62 95.70 4.62L95.70 4.62ZM95.70 11.13Q96.40 11.13 96.97 10.79Q97.54 10.44 97.86 9.85Q98.18 9.25 98.18 8.51L98.18 8.51Q98.18 7.77 97.86 7.17Q97.54 6.57 96.97 6.22Q96.40 5.88 95.70 5.88L95.70 5.88Q95.00 5.88 94.44 6.22Q93.87 6.57 93.54 7.17Q93.21 7.77 93.21 8.51L93.21 8.51Q93.21 9.25 93.54 9.85Q93.87 10.44 94.44 10.79Q95.00 11.13 95.70 11.13L95.70 11.13Z"></path></g><defs data-v-fde0c5aa=""><linearGradient data-v-fde0c5aa="" gradientTransform="rotate(25)" id="8bfdd5e1-6c86-4110-bbcb-4d88b44e4b1f" x1="0%" y1="0%" x2="100%" y2="0%"><stop data-v-fde0c5aa="" offset="0%" stop-color="#288B58" stop-opacity="1"></stop><stop data-v-fde0c5aa="" offset="100%" stop-color="#1522F1" stop-opacity="1"></stop></linearGradient></defs><g data-v-fde0c5aa="" id="b9a3ac19-2171-4174-9615-a2d2be44dd52" stroke="none" fill="url(#8bfdd5e1-6c86-4110-bbcb-4d88b44e4b1f)" transform="matrix(0.4352576665840569,0,0,0.4352576665840569,128.23711667079715,96.23892443145598)"><path d="M5.882 5.882C0 11.765 0 17.647 0 17.647l58.825 58.824 8.823-2.941 23.528 23.529C93.038 98.92 94.155 100 96.509 100c.733 0 1.654 0 2.573-.918.919-.92.918-1.838.918-2.573 0-2.354-1.281-3.673-2.939-5.333L73.53 67.648l2.941-8.823L17.647 0S11.765 0 5.882 5.882z"></path><circle cx="26.471" cy="67.648" r="8.823"></circle></g><defs data-v-fde0c5aa=""><!----></defs><g data-v-fde0c5aa="" id="c1a2ffb2-4dc2-46e3-b9a8-3b6713f26bc8" fill="#000000" transform="matrix(0.5409604109624876,0,0,0.5409604109624876,51.71019777935878,195.0894795514173)"><path d="M1.46 13.02L1.46 3.78L4.72 3.78Q6.23 3.78 6.98 4.41Q7.73 5.04 7.73 6.23L7.73 6.23Q7.73 7.04 7.29 7.60Q6.85 8.16 6.03 8.33L6.03 8.33L6.03 8.34Q6.93 8.48 7.46 9.07Q7.98 9.66 7.98 10.53L7.98 10.53Q7.98 11.72 7.13 12.37Q6.29 13.02 4.72 13.02L4.72 13.02L1.46 13.02ZM2.16 8.04L4.73 8.04Q6.99 8.04 6.99 6.23L6.99 6.23Q6.99 4.42 4.73 4.42L4.73 4.42L2.16 4.42L2.16 8.04ZM2.16 12.38L4.86 12.38Q6.03 12.38 6.64 11.90Q7.24 11.42 7.24 10.53L7.24 10.53Q7.24 9.62 6.64 9.15Q6.03 8.68 4.86 8.68L4.86 8.68L2.16 8.68L2.16 12.38ZM17.44 4.66Q17.18 4.66 17.02 4.50Q16.86 4.34 16.86 4.07L16.86 4.07Q16.86 3.81 17.02 3.65Q17.18 3.49 17.44 3.49L17.44 3.49Q17.71 3.49 17.87 3.65Q18.03 3.81 18.03 4.07L18.03 4.07Q18.03 4.34 17.87 4.50Q17.71 4.66 17.44 4.66L17.44 4.66ZM17.79 6.02L17.79 13.02L17.09 13.02L17.09 6.02L17.79 6.02ZM32.63 2.80L33.33 2.80L33.33 13.02L32.70 13.02L32.66 11.45Q32.37 12.25 31.68 12.71Q31.00 13.16 30.06 13.16L30.06 13.16Q28.57 13.16 27.71 12.19Q26.85 11.23 26.85 9.52L26.85 9.52Q26.85 7.81 27.71 6.85Q28.57 5.88 30.06 5.88L30.06 5.88Q30.97 5.88 31.64 6.31Q32.31 6.75 32.63 7.50L32.63 7.50L32.63 2.80ZM30.14 12.54Q31.23 12.54 31.91 11.81Q32.58 11.07 32.63 9.81L32.63 9.81L32.63 9.23Q32.56 7.97 31.90 7.23Q31.23 6.50 30.14 6.50L30.14 6.50Q28.92 6.50 28.24 7.30Q27.55 8.11 27.55 9.52L27.55 9.52Q27.55 10.93 28.24 11.74Q28.92 12.54 30.14 12.54L30.14 12.54ZM55.12 4.91L55.12 6.02L57.58 6.02L57.58 6.62L55.12 6.62L55.12 13.02L54.42 13.02L54.42 6.62L53.02 6.62L53.02 6.02L54.42 6.02L54.42 4.84Q54.42 3.86 54.96 3.30Q55.51 2.73 56.50 2.73L56.50 2.73Q57.26 2.73 57.64 3.11L57.64 3.11L57.44 3.67Q57.09 3.36 56.56 3.36L56.56 3.36Q55.87 3.36 55.50 3.76Q55.12 4.16 55.12 4.91L55.12 4.91ZM68.54 5.88Q70.10 5.88 70.99 6.85Q71.88 7.83 71.88 9.52L71.88 9.52Q71.88 11.21 70.99 12.19Q70.10 13.16 68.54 13.16L68.54 13.16Q66.99 13.16 66.10 12.19Q65.21 11.21 65.21 9.52L65.21 9.52Q65.21 7.83 66.10 6.85Q66.99 5.88 68.54 5.88L68.54 5.88ZM68.54 6.48Q67.31 6.48 66.61 7.29Q65.91 8.11 65.91 9.52L65.91 9.52Q65.91 10.93 66.61 11.75Q67.31 12.56 68.54 12.56L68.54 12.56Q69.78 12.56 70.48 11.75Q71.18 10.93 71.18 9.52L71.18 9.52Q71.18 8.11 70.48 7.29Q69.78 6.48 68.54 6.48L68.54 6.48ZM83.86 5.88Q84.42 5.88 84.74 6.12L84.74 6.12L84.56 6.78Q84.24 6.52 83.66 6.52L83.66 6.52Q83.13 6.52 82.66 6.85Q82.19 7.18 81.91 7.78Q81.62 8.37 81.62 9.10L81.62 9.10L81.62 13.02L80.92 13.02L80.92 6.02L81.51 6.02L81.59 7.45Q81.89 6.71 82.47 6.29Q83.05 5.88 83.86 5.88L83.86 5.88ZM108.02 8.50L111.82 8.50L111.82 13.02L111.26 13.02L111.23 11.41Q110.85 12.25 110.05 12.71Q109.24 13.16 108.05 13.16L108.05 13.16Q106.79 13.16 105.85 12.58Q104.90 12.00 104.39 10.92Q103.88 9.84 103.88 8.40L103.88 8.40Q103.88 6.96 104.41 5.88Q104.93 4.80 105.88 4.22Q106.83 3.64 108.09 3.64L108.09 3.64Q109.51 3.64 110.40 4.20Q111.30 4.76 111.75 5.91L111.75 5.91L111.10 6.24Q110.78 5.28 110.02 4.78Q109.26 4.28 108.09 4.28L108.09 4.28Q107.06 4.28 106.27 4.78Q105.49 5.28 105.06 6.21Q104.62 7.14 104.62 8.40L104.62 8.40Q104.62 10.32 105.54 11.42Q106.46 12.52 108.08 12.52L108.08 12.52Q109.09 12.52 109.79 12.12Q110.49 11.72 110.82 11.07Q111.16 10.42 111.16 9.67L111.16 9.67L111.16 9.16L108.02 9.16L108.02 8.50ZM121.73 2.80L121.73 11.33Q121.73 11.97 121.93 12.24Q122.14 12.50 122.61 12.50L122.61 12.50Q122.89 12.50 123.09 12.46Q123.28 12.42 123.54 12.31L123.54 12.31L123.44 12.98Q123.05 13.16 122.51 13.16L122.51 13.16Q121.76 13.16 121.39 12.73Q121.03 12.31 121.03 11.40L121.03 11.40L121.03 2.80L121.73 2.80ZM134.75 5.88Q136.30 5.88 137.19 6.85Q138.08 7.83 138.08 9.52L138.08 9.52Q138.08 11.21 137.19 12.19Q136.30 13.16 134.75 13.16L134.75 13.16Q133.20 13.16 132.31 12.19Q131.42 11.21 131.42 9.52L131.42 9.52Q131.42 7.83 132.31 6.85Q133.20 5.88 134.75 5.88L134.75 5.88ZM134.75 6.48Q133.52 6.48 132.82 7.29Q132.12 8.11 132.12 9.52L132.12 9.52Q132.12 10.93 132.82 11.75Q133.52 12.56 134.75 12.56L134.75 12.56Q135.98 12.56 136.68 11.75Q137.38 10.93 137.38 9.52L137.38 9.52Q137.38 8.11 136.68 7.29Q135.98 6.48 134.75 6.48L134.75 6.48ZM150.07 5.88Q150.63 5.88 150.95 6.12L150.95 6.12L150.77 6.78Q150.44 6.52 149.87 6.52L149.87 6.52Q149.34 6.52 148.87 6.85Q148.40 7.18 148.11 7.78Q147.83 8.37 147.83 9.10L147.83 9.10L147.83 13.02L147.13 13.02L147.13 6.02L147.71 6.02L147.80 7.45Q148.09 6.71 148.67 6.29Q149.25 5.88 150.07 5.88L150.07 5.88ZM165.03 6.02L161.66 14.31Q161.27 15.26 160.79 15.64Q160.31 16.03 159.59 16.03L159.59 16.03Q158.72 16.03 158.26 15.51L158.26 15.51L158.52 14.91Q158.86 15.41 159.59 15.41L159.59 15.41Q160.08 15.41 160.42 15.14Q160.76 14.87 161.06 14.14L161.06 14.14L161.50 13.02L160.78 11.28L158.55 6.02L159.35 6.02L161.49 11.33L161.84 12.26L162.22 11.26L164.28 6.02L165.03 6.02ZM172.84 11.87Q173.21 11.87 173.41 12.15Q173.61 12.43 173.61 12.89L173.61 12.89Q173.61 13.48 173.31 14Q173.00 14.52 172.41 14.81L172.41 14.81L172.02 14.46Q172.51 14.28 172.82 13.85Q173.14 13.41 173.11 13.01L173.11 13.01L173.07 12.99Q172.97 13.13 172.75 13.13L172.75 13.13Q172.54 13.13 172.37 12.96Q172.20 12.80 172.20 12.52L172.20 12.52Q172.20 12.25 172.39 12.06Q172.58 11.87 172.84 11.87L172.84 11.87ZM198.37 6.54L196.50 13.02L195.64 13.02L192.75 3.78L193.51 3.78L196.07 12.45L198.49 3.78L199.30 3.78L201.73 12.46L204.32 3.78L205.03 3.78L202.15 13.02L201.28 13.02L199.42 6.54L198.90 4.54L198.88 4.54L198.37 6.54ZM214.05 4.66Q213.78 4.66 213.62 4.50Q213.46 4.34 213.46 4.07L213.46 4.07Q213.46 3.81 213.62 3.65Q213.78 3.49 214.05 3.49L214.05 3.49Q214.31 3.49 214.47 3.65Q214.63 3.81 214.63 4.07L214.63 4.07Q214.63 4.34 214.47 4.50Q214.31 4.66 214.05 4.66L214.05 4.66ZM214.40 6.02L214.40 13.02L213.70 13.02L213.70 6.02L214.40 6.02ZM227.18 5.88Q228.38 5.88 229.12 6.55Q229.85 7.22 229.85 8.48L229.85 8.48L229.85 13.02L229.15 13.02L229.15 8.71Q229.15 7.59 228.61 7.04Q228.06 6.50 227.11 6.50L227.11 6.50Q226.44 6.50 225.86 6.80Q225.29 7.11 224.95 7.70Q224.60 8.29 224.60 9.07L224.60 9.07L224.60 13.02L223.90 13.02L223.90 6.02L224.53 6.02L224.56 7.43Q224.90 6.68 225.59 6.28Q226.28 5.88 227.18 5.88L227.18 5.88ZM253.99 12.00L254.24 12.57Q253.96 12.85 253.55 13.01Q253.15 13.16 252.66 13.16L252.66 13.16Q251.80 13.16 251.32 12.69Q250.84 12.22 250.84 11.27L250.84 11.27L250.84 6.62L249.44 6.62L249.44 6.02L250.84 6.02L250.84 4.27L251.54 4.07L251.54 6.02L254.17 6.02L254.17 6.62L251.54 6.62L251.54 11.17Q251.54 11.83 251.85 12.17Q252.17 12.52 252.77 12.52L252.77 12.52Q253.47 12.52 253.99 12.00L253.99 12.00ZM265.93 5.88Q267.13 5.88 267.87 6.55Q268.60 7.22 268.60 8.47L268.60 8.47L268.60 13.02L267.90 13.02L267.90 8.69Q267.90 7.59 267.35 7.03Q266.80 6.48 265.86 6.48L265.86 6.48Q265.19 6.48 264.61 6.80Q264.04 7.11 263.70 7.70Q263.35 8.29 263.35 9.07L263.35 9.07L263.35 13.02L262.65 13.02L262.65 2.80L263.35 2.80L263.35 7.41Q263.69 6.66 264.37 6.27Q265.05 5.88 265.93 5.88L265.93 5.88ZM283.85 9.35Q283.85 9.59 283.82 9.81L283.82 9.81L278.26 9.81Q278.33 11.10 279.03 11.82Q279.72 12.54 280.88 12.54L280.88 12.54Q281.71 12.54 282.30 12.21Q282.90 11.87 283.16 11.26L283.16 11.26L283.75 11.56Q283.36 12.33 282.63 12.75Q281.90 13.16 280.88 13.16L280.88 13.16Q279.33 13.16 278.45 12.19Q277.58 11.23 277.58 9.52L277.58 9.52Q277.58 7.81 278.43 6.85Q279.27 5.88 280.80 5.88L280.80 5.88Q282.23 5.88 283.04 6.83Q283.85 7.78 283.85 9.35L283.85 9.35ZM280.80 6.50Q279.66 6.50 279.01 7.20Q278.35 7.91 278.26 9.18L278.26 9.18L283.19 9.18Q283.12 7.92 282.50 7.21Q281.88 6.50 280.80 6.50L280.80 6.50ZM308.00 8.50L311.79 8.50L311.79 13.02L311.23 13.02L311.21 11.41Q310.83 12.25 310.02 12.71Q309.22 13.16 308.03 13.16L308.03 13.16Q306.77 13.16 305.82 12.58Q304.88 12.00 304.37 10.92Q303.86 9.84 303.86 8.40L303.86 8.40Q303.86 6.96 304.38 5.88Q304.91 4.80 305.86 4.22Q306.81 3.64 308.07 3.64L308.07 3.64Q309.48 3.64 310.38 4.20Q311.28 4.76 311.72 5.91L311.72 5.91L311.08 6.24Q310.76 5.28 310.00 4.78Q309.23 4.28 308.07 4.28L308.07 4.28Q307.03 4.28 306.25 4.78Q305.47 5.28 305.03 6.21Q304.60 7.14 304.60 8.40L304.60 8.40Q304.60 10.32 305.52 11.42Q306.43 12.52 308.06 12.52L308.06 12.52Q309.06 12.52 309.76 12.12Q310.46 11.72 310.80 11.07Q311.14 10.42 311.14 9.67L311.14 9.67L311.14 9.16L308.00 9.16L308.00 8.50ZM326.69 12.56Q327.04 12.56 327.24 12.46L327.24 12.46L327.19 13.02Q326.94 13.16 326.51 13.16L326.51 13.16Q326.02 13.16 325.71 12.89Q325.40 12.63 325.36 11.97L325.36 11.97Q325.04 12.53 324.32 12.84Q323.61 13.16 322.83 13.16L322.83 13.16Q321.79 13.16 321.17 12.70Q320.54 12.24 320.54 11.38L320.54 11.38Q320.54 9.76 323.20 9.28L323.20 9.28L325.35 8.90L325.35 8.29Q325.35 7.45 324.85 6.97Q324.35 6.50 323.44 6.50L323.44 6.50Q321.78 6.50 321.20 7.98L321.20 7.98L320.67 7.59Q320.98 6.76 321.69 6.32Q322.41 5.88 323.44 5.88L323.44 5.88Q324.66 5.88 325.35 6.47Q326.05 7.07 326.05 8.20L326.05 8.20L326.05 11.82Q326.05 12.56 326.69 12.56L326.69 12.56ZM322.90 12.54Q323.48 12.54 324.04 12.34Q324.60 12.14 324.98 11.74Q325.35 11.34 325.35 10.78L325.35 10.78L325.35 9.48L323.43 9.83Q322.29 10.04 321.78 10.42Q321.26 10.79 321.26 11.38L321.26 11.38Q321.26 11.94 321.69 12.24Q322.13 12.54 322.90 12.54L322.90 12.54ZM344.05 5.87Q345.21 5.87 345.95 6.54Q346.68 7.21 346.68 8.47L346.68 8.47L346.68 13.01L345.98 13.01L345.98 8.54Q345.98 7.53 345.44 7.01Q344.89 6.48 343.97 6.48L343.97 6.48Q343.29 6.48 342.74 6.80Q342.19 7.13 341.86 7.70Q341.53 8.27 341.53 8.99L341.53 8.99L341.53 13.02L340.83 13.02L340.83 8.55Q340.83 7.55 340.28 7.02Q339.74 6.50 338.81 6.50L338.81 6.50Q338.17 6.50 337.61 6.80Q337.05 7.11 336.71 7.70Q336.36 8.29 336.36 9.06L336.36 9.06L336.36 13.02L335.66 13.02L335.66 6.02L336.29 6.02L336.34 7.42Q336.67 6.69 337.36 6.29Q338.04 5.88 338.88 5.88L338.88 5.88Q339.78 5.88 340.45 6.30Q341.12 6.72 341.39 7.52L341.39 7.52Q341.67 6.75 342.42 6.31Q343.17 5.87 344.05 5.87L344.05 5.87ZM361.93 9.35Q361.93 9.59 361.90 9.81L361.90 9.81L356.34 9.81Q356.41 11.10 357.11 11.82Q357.80 12.54 358.96 12.54L358.96 12.54Q359.79 12.54 360.38 12.21Q360.98 11.87 361.24 11.26L361.24 11.26L361.83 11.56Q361.44 12.33 360.71 12.75Q359.98 13.16 358.96 13.16L358.96 13.16Q357.41 13.16 356.53 12.19Q355.66 11.23 355.66 9.52L355.66 9.52Q355.66 7.81 356.50 6.85Q357.35 5.88 358.88 5.88L358.88 5.88Q360.30 5.88 361.12 6.83Q361.93 7.78 361.93 9.35L361.93 9.35ZM358.88 6.50Q357.74 6.50 357.08 7.20Q356.43 7.91 356.34 9.18L356.34 9.18L361.27 9.18Q361.20 7.92 360.58 7.21Q359.95 6.50 358.88 6.50L358.88 6.50Z"></path></g></svg>