<svg data-v-fde0c5aa="" xmlns="http://www.w3.org/2000/svg" viewBox="0 0 300 300" class="font"><!----><defs data-v-fde0c5aa=""><!----></defs><rect data-v-fde0c5aa="" fill="transparent" x="0" y="0" width="300px" height="300px" class="logo-background-square"></rect><defs data-v-fde0c5aa=""><linearGradient data-v-fde0c5aa="" gradientTransform="rotate(25)" id="90156a0c-77d8-4dcd-b00f-408a67d96a7f" x1="0%" y1="0%" x2="100%" y2="0%"><stop data-v-fde0c5aa="" offset="0%" stop-color="#288B58" stop-opacity="1"></stop><stop data-v-fde0c5aa="" offset="100%" stop-color="#1522F1" stop-opacity="1"></stop></linearGradient></defs><g data-v-fde0c5aa="" id="8a120d71-a413-49aa-bcc5-dd2d5dbc8324" fill="url(#90156a0c-77d8-4dcd-b00f-408a67d96a7f)" transform="matrix(2.2155084918308625,0,0,2.2155084918308625,39.446122877042285,134.7129914591889)"><path d="M9.58 11.31Q9.65 11.49 9.65 11.62L9.65 11.62Q9.65 11.91 9.44 12.12Q9.23 12.33 8.92 12.33L8.92 12.33Q8.71 12.33 8.52 12.21Q8.33 12.10 8.25 11.89L8.25 11.89L7.46 9.93L2.44 9.93L1.64 11.89Q1.54 12.10 1.36 12.21Q1.18 12.33 0.97 12.33L0.97 12.33Q0.66 12.33 0.46 12.12Q0.25 11.90 0.25 11.61L0.25 11.61Q0.25 11.47 0.32 11.28L0.32 11.28L4.26 1.89Q4.47 1.40 4.94 1.40L4.94 1.40Q5.45 1.40 5.63 1.89L5.63 1.89L9.58 11.31ZM2.93 8.72L6.97 8.72L4.97 3.74L2.93 8.72ZM17.42 4.66Q17.74 4.66 17.93 4.86Q18.13 5.05 18.13 5.38L18.13 5.38L18.13 11.62Q18.13 11.93 17.93 12.13Q17.74 12.33 17.42 12.33L17.42 12.33Q17.11 12.33 16.91 12.13Q16.70 11.93 16.70 11.62L16.70 11.62L16.70 11.47Q16.25 11.91 15.64 12.16Q15.02 12.40 14.32 12.40L14.32 12.40Q13.36 12.40 12.59 11.98Q11.82 11.56 11.38 10.76Q10.95 9.95 10.95 8.82L10.95 8.82L10.95 5.38Q10.95 5.07 11.15 4.86Q11.35 4.66 11.66 4.66L11.66 4.66Q11.97 4.66 12.17 4.86Q12.38 5.07 12.38 5.38L12.38 5.38L12.38 8.82Q12.38 9.95 12.99 10.54Q13.59 11.12 14.60 11.12L14.60 11.12Q15.19 11.12 15.67 10.88Q16.16 10.64 16.43 10.23Q16.70 9.83 16.70 9.32L16.70 9.32L16.70 5.38Q16.70 5.05 16.91 4.86Q17.11 4.66 17.42 4.66L17.42 4.66ZM24.05 4.62Q25.70 4.62 26.80 5.88L26.80 5.88Q26.94 6.03 26.94 6.24L26.94 6.24Q26.94 6.55 26.63 6.76L26.63 6.76Q26.49 6.86 26.31 6.86L26.31 6.86Q25.98 6.86 25.76 6.61L25.76 6.61Q25.41 6.23 25.00 6.05Q24.58 5.88 24.05 5.88L24.05 5.88Q22.97 5.88 22.30 6.60Q21.63 7.32 21.63 8.51L21.63 8.51Q21.63 9.27 21.95 9.86Q22.26 10.46 22.83 10.79Q23.39 11.13 24.12 11.13L24.12 11.13Q25.07 11.13 25.66 10.64L25.66 10.64Q25.93 10.44 26.18 10.44L26.18 10.44Q26.38 10.44 26.54 10.57L26.54 10.57Q26.81 10.79 26.81 11.07L26.81 11.07Q26.81 11.28 26.64 11.45L26.64 11.45Q25.63 12.39 24.12 12.39L24.12 12.39Q23.02 12.39 22.13 11.89Q21.25 11.38 20.75 10.49Q20.26 9.60 20.26 8.51L20.26 8.51Q20.26 7.39 20.74 6.50Q21.22 5.61 22.09 5.12Q22.96 4.62 24.05 4.62L24.05 4.62ZM32.33 10.93Q32.58 10.93 32.75 11.13Q32.93 11.33 32.93 11.63L32.93 11.63Q32.93 11.94 32.70 12.14Q32.47 12.33 32.10 12.33L32.10 12.33L31.85 12.33Q31.16 12.33 30.60 11.98Q30.03 11.62 29.71 11.00Q29.39 10.39 29.39 9.62L29.39 9.62L29.39 6.16L28.74 6.16Q28.45 6.16 28.27 5.99Q28.08 5.82 28.08 5.57L28.08 5.57Q28.08 5.29 28.27 5.12Q28.45 4.96 28.74 4.96L28.74 4.96L29.39 4.96L29.39 2.94Q29.39 2.63 29.58 2.44Q29.78 2.24 30.09 2.24L30.09 2.24Q30.39 2.24 30.59 2.44Q30.79 2.63 30.79 2.94L30.79 2.94L30.79 4.96L31.98 4.96Q32.27 4.96 32.45 5.12Q32.63 5.29 32.63 5.57L32.63 5.57Q32.63 5.82 32.45 5.99Q32.27 6.16 31.98 6.16L31.98 6.16L30.79 6.16L30.79 9.62Q30.79 10.18 31.09 10.56Q31.40 10.93 31.85 10.93L31.85 10.93L32.33 10.93ZM34.82 5.39Q34.82 5.07 35.02 4.87Q35.22 4.68 35.53 4.68L35.53 4.68Q35.85 4.68 36.05 4.87Q36.25 5.07 36.25 5.39L36.25 5.39L36.25 11.62Q36.25 11.93 36.05 12.13Q35.85 12.33 35.53 12.33L35.53 12.33Q35.22 12.33 35.02 12.13Q34.82 11.93 34.82 11.62L34.82 11.62L34.82 5.39ZM35.53 1.58Q35.91 1.58 36.18 1.85Q36.46 2.13 36.46 2.51L36.46 2.51Q36.46 2.88 36.18 3.16Q35.91 3.43 35.53 3.43L35.53 3.43Q35.15 3.43 34.88 3.16Q34.61 2.88 34.61 2.51L34.61 2.51Q34.61 2.13 34.88 1.85Q35.15 1.58 35.53 1.58L35.53 1.58ZM42.38 4.62Q43.48 4.62 44.36 5.12Q45.23 5.61 45.73 6.50Q46.23 7.38 46.23 8.51L46.23 8.51Q46.23 9.63 45.74 10.51Q45.25 11.40 44.37 11.89Q43.50 12.39 42.38 12.39L42.38 12.39Q41.26 12.39 40.38 11.89Q39.49 11.40 39.00 10.51Q38.51 9.63 38.51 8.51L38.51 8.51Q38.51 7.38 39.00 6.50Q39.49 5.61 40.38 5.12Q41.26 4.62 42.38 4.62L42.38 4.62ZM42.38 5.88Q41.66 5.88 41.10 6.22Q40.53 6.55 40.21 7.15Q39.89 7.76 39.89 8.51L39.89 8.51Q39.89 9.27 40.21 9.86Q40.53 10.46 41.10 10.79Q41.66 11.13 42.38 11.13L42.38 11.13Q43.09 11.13 43.66 10.79Q44.23 10.46 44.54 9.86Q44.86 9.27 44.86 8.51L44.86 8.51Q44.86 7.76 44.54 7.15Q44.23 6.55 43.66 6.22Q43.09 5.88 42.38 5.88L42.38 5.88ZM52.16 4.61Q53.13 4.61 53.90 5.03Q54.67 5.45 55.10 6.25Q55.54 7.06 55.54 8.19L55.54 8.19L55.54 11.63Q55.54 11.94 55.34 12.14Q55.13 12.35 54.82 12.35L54.82 12.35Q54.52 12.35 54.31 12.14Q54.11 11.94 54.11 11.63L54.11 11.63L54.11 8.19Q54.11 7.06 53.50 6.47Q52.89 5.89 51.88 5.89L51.88 5.89Q51.30 5.89 50.81 6.13Q50.33 6.37 50.06 6.78Q49.78 7.18 49.78 7.69L49.78 7.69L49.78 11.63Q49.78 11.94 49.59 12.14Q49.39 12.35 49.07 12.35L49.07 12.35Q48.76 12.35 48.56 12.14Q48.36 11.94 48.36 11.63L48.36 11.63L48.36 5.39Q48.36 5.07 48.56 4.87Q48.76 4.68 49.07 4.68L49.07 4.68Q49.39 4.68 49.59 4.87Q49.78 5.07 49.78 5.39L49.78 5.39L49.78 5.54Q50.23 5.10 50.85 4.85Q51.46 4.61 52.16 4.61L52.16 4.61ZM66.22 11.31Q66.29 11.49 66.29 11.62L66.29 11.62Q66.29 11.91 66.08 12.12Q65.87 12.33 65.56 12.33L65.56 12.33Q65.35 12.33 65.16 12.21Q64.97 12.10 64.89 11.89L64.89 11.89L64.11 9.93L59.08 9.93L58.28 11.89Q58.18 12.10 58.00 12.21Q57.82 12.33 57.61 12.33L57.61 12.33Q57.30 12.33 57.10 12.12Q56.90 11.90 56.90 11.61L56.90 11.61Q56.90 11.47 56.97 11.28L56.97 11.28L60.90 1.89Q61.11 1.40 61.59 1.40L61.59 1.40Q62.09 1.40 62.27 1.89L62.27 1.89L66.22 11.31ZM59.57 8.72L63.62 8.72L61.61 3.74L59.57 8.72ZM71.50 4.59Q72.24 4.59 72.66 4.82Q73.08 5.04 73.08 5.38L73.08 5.38Q73.08 5.47 73.07 5.52L73.07 5.52Q72.94 5.96 72.51 5.96L72.51 5.96Q72.44 5.96 72.30 5.94L72.30 5.94Q71.74 5.84 71.39 5.84L71.39 5.84Q70.38 5.84 69.76 6.30Q69.15 6.76 69.15 7.55L69.15 7.55L69.15 11.63Q69.15 11.97 68.97 12.15Q68.80 12.33 68.45 12.33L68.45 12.33Q68.11 12.33 67.93 12.16Q67.75 11.98 67.75 11.63L67.75 11.63L67.75 5.38Q67.75 5.04 67.93 4.86Q68.11 4.68 68.45 4.68L68.45 4.68Q69.15 4.68 69.15 5.38L69.15 5.38L69.15 5.64Q69.57 5.15 70.18 4.87Q70.80 4.59 71.50 4.59L71.50 4.59ZM80.86 8.39Q80.86 8.65 80.68 8.83Q80.50 9.00 80.22 9.00L80.22 9.00L74.90 9.00Q75.05 9.98 75.79 10.58Q76.52 11.19 77.59 11.19L77.59 11.19Q78.01 11.19 78.46 11.03Q78.92 10.88 79.21 10.65L79.21 10.65Q79.41 10.50 79.67 10.50L79.67 10.50Q79.94 10.50 80.09 10.64L80.09 10.64Q80.35 10.85 80.35 11.12L80.35 11.12Q80.35 11.37 80.12 11.54L80.12 11.54Q79.65 11.91 78.94 12.15Q78.23 12.39 77.59 12.39L77.59 12.39Q76.44 12.39 75.53 11.89Q74.62 11.40 74.11 10.51Q73.60 9.63 73.60 8.51L73.60 8.51Q73.60 7.39 74.08 6.50Q74.56 5.61 75.42 5.12Q76.29 4.62 77.38 4.62L77.38 4.62Q78.46 4.62 79.24 5.10Q80.02 5.57 80.44 6.43Q80.86 7.28 80.86 8.39L80.86 8.39ZM77.38 5.82Q76.36 5.82 75.72 6.38Q75.08 6.94 74.91 7.88L74.91 7.88L79.58 7.88Q79.45 6.94 78.88 6.38Q78.30 5.82 77.38 5.82L77.38 5.82ZM86.49 4.61Q87.46 4.61 88.23 5.03Q89.00 5.45 89.43 6.25Q89.87 7.06 89.87 8.19L89.87 8.19L89.87 11.63Q89.87 11.94 89.66 12.14Q89.46 12.35 89.15 12.35L89.15 12.35Q88.84 12.35 88.64 12.14Q88.44 11.94 88.44 11.63L88.44 11.63L88.44 8.19Q88.44 7.06 87.83 6.47Q87.22 5.89 86.21 5.89L86.21 5.89Q85.62 5.89 85.14 6.13Q84.66 6.37 84.39 6.78Q84.11 7.18 84.11 7.69L84.11 7.69L84.11 11.63Q84.11 11.94 83.92 12.14Q83.72 12.35 83.40 12.35L83.40 12.35Q83.09 12.35 82.89 12.14Q82.68 11.94 82.68 11.63L82.68 11.63L82.68 5.39Q82.68 5.07 82.89 4.87Q83.09 4.68 83.40 4.68L83.40 4.68Q83.72 4.68 83.92 4.87Q84.11 5.07 84.11 5.39L84.11 5.39L84.11 5.54Q84.56 5.10 85.18 4.85Q85.79 4.61 86.49 4.61L86.49 4.61ZM95.70 4.62Q96.78 4.62 97.66 5.13Q98.53 5.64 99.04 6.53Q99.55 7.42 99.55 8.51L99.55 8.51L99.55 11.63Q99.55 11.94 99.35 12.14Q99.15 12.35 98.84 12.35L98.84 12.35Q98.53 12.35 98.33 12.14Q98.13 11.94 98.13 11.63L98.13 11.63L98.13 11.12Q97.64 11.72 96.94 12.05Q96.24 12.39 95.42 12.39L95.42 12.39Q94.42 12.39 93.60 11.89Q92.78 11.38 92.31 10.49Q91.84 9.60 91.84 8.51L91.84 8.51Q91.84 7.42 92.34 6.53Q92.85 5.64 93.74 5.13Q94.63 4.62 95.70 4.62L95.70 4.62ZM95.70 11.13Q96.40 11.13 96.97 10.79Q97.54 10.44 97.86 9.85Q98.18 9.25 98.18 8.51L98.18 8.51Q98.18 7.77 97.86 7.17Q97.54 6.57 96.97 6.22Q96.40 5.88 95.70 5.88L95.70 5.88Q95.00 5.88 94.44 6.22Q93.87 6.57 93.54 7.17Q93.21 7.77 93.21 8.51L93.21 8.51Q93.21 9.25 93.54 9.85Q93.87 10.44 94.44 10.79Q95.00 11.13 95.70 11.13L95.70 11.13Z"></path></g><!----><!----></svg>